<?xml version="1.0" encoding="UTF-8"?>
<svg version="1.1" xmlns="http://www.w3.org/2000/svg" width="500" height="500">
<path d="M0 0 C165 0 330 0 500 0 C500 165 500 330 500 500 C335 500 170 500 0 500 C0 335 0 170 0 0 Z " fill="#FEFEFE" transform="translate(0,0)"/>
<path d="M0 0 C1.625 1.1875 1.625 1.1875 3.625 4.1875 C4.98982357 14.4236768 -0.00832547 24.38568197 -5 33.125 C-6.175625 34.6409375 -6.175625 34.6409375 -7.375 36.1875 C-8.695 36.1875 -10.015 36.1875 -11.375 36.1875 C-10.96669746 31.01566777 -9.01302101 27.15725313 -6.62890625 22.65234375 C-4.48301664 18.43409969 -3.10734066 15.15408802 -3.25 10.375 C-3.26804687 9.58480469 -3.28609375 8.79460937 -3.3046875 7.98046875 C-3.32789063 7.38878906 -3.35109375 6.79710937 -3.375 6.1875 C-19.08136319 4.44234853 -37.13831148 15.1060388 -49.3046875 24.43359375 C-55.0423484 29.27716236 -55.0423484 29.27716236 -57.9375 36 C-57.00009026 41.31198855 -52.79350456 43.43782967 -48.609375 46.46484375 C-45.95662412 48.48016177 -44.46923806 49.9593447 -43.1875 53.0625 C-43.50092044 58.28617404 -46.51096451 61.41006793 -50.140625 64.87109375 C-52.97612209 67.36656172 -55.87527115 69.77804475 -58.796875 72.171875 C-69.95849991 81.6696552 -80.83807127 96.47331339 -83.375 111.1875 C-84.04735983 119.74958226 -84.07646514 127.73094888 -79.375 135.1875 C-75.33374862 139.6881976 -71.04788611 142.92598896 -64.94140625 143.5234375 C-44.48196781 143.99309094 -28.77496974 135.07295284 -14.1796875 121.17578125 C-7.38539889 114.5765203 -1.21513519 107.65241988 4.625 100.1875 C5.30820313 99.37152344 5.99140625 98.55554688 6.6953125 97.71484375 C11.27255049 92.17144711 11.27255049 92.17144711 12.625 85.1875 C14.275 84.8575 15.925 84.5275 17.625 84.1875 C18.945 87.1575 20.265 90.1275 21.625 93.1875 C28.53392305 89.91722073 28.53392305 89.91722073 35 85.875 C37.625 84.1875 37.625 84.1875 41.625 84.1875 C41.55859375 86.41796875 41.55859375 86.41796875 40.625 89.1875 C38.29740863 90.87360601 36.2064326 92.18436325 33.6875 93.5 C33.04103516 93.85900391 32.39457031 94.21800781 31.72851562 94.58789062 C26.96008929 97.1875 26.96008929 97.1875 24.625 97.1875 C24.625 97.8475 24.625 98.5075 24.625 99.1875 C36.70083859 100.23926659 44.71148454 97.13368358 54.1875 89.75 C54.78691406 89.23566406 55.38632812 88.72132813 56.00390625 88.19140625 C56.53886719 87.86011719 57.07382812 87.52882813 57.625 87.1875 C58.615 87.5175 59.605 87.8475 60.625 88.1875 C60.31321279 91.22403632 59.69619401 92.12443541 57.3671875 94.1875 C37.21345612 108.24568864 37.21345612 108.24568864 24.625 106.1875 C21.5625 104.1875 21.5625 104.1875 19.625 102.1875 C16.6530615 103.31201727 14.29059313 104.41043791 11.625 106.1875 C8.9375 105.8125 8.9375 105.8125 6.625 105.1875 C5.89796875 106.05890625 5.1709375 106.9303125 4.421875 107.828125 C-11.58257733 126.86081012 -31.04006428 147.50026166 -57.375 150.1875 C-64.63057335 150.69084773 -68.11584868 149.90968175 -75.375 147.1875 C-75.705 160.0575 -76.035 172.9275 -76.375 186.1875 C-77.035 186.1875 -77.695 186.1875 -78.375 186.1875 C-78.375 172.3275 -78.375 158.4675 -78.375 144.1875 C-79.695 143.5275 -81.015 142.8675 -82.375 142.1875 C-88.41396305 135.11749448 -91.02418058 127.10374208 -90.6484375 117.796875 C-87.99122977 92.43952125 -69.98078459 72.95425479 -51.375 57.1875 C-51.69001039 54.01567125 -51.97428774 52.56426532 -54.3359375 50.34375 C-55.13257813 49.7971875 -55.92921875 49.250625 -56.75 48.6875 C-61.23233681 45.38810105 -63.79365018 43.02965467 -64.9375 37.4375 C-63.42465584 28.69662265 -56.34587425 22.71308429 -49.42944336 17.80761719 C-47.35279795 16.43076315 -45.25180602 15.11050847 -43.125 13.8125 C-42.35720215 13.34279785 -41.5894043 12.8730957 -40.79833984 12.38916016 C-12.66862539 -4.33400342 -12.66862539 -4.33400342 0 0 Z " fill="#484645" transform="translate(227.375,163.8125)"/>
<path d="M0 0 C0.77527682 0.00291284 1.55055364 0.00582568 2.34932369 0.00882679 C3.16688859 0.00797237 3.98445348 0.00711794 4.82679307 0.00623763 C7.58761584 0.00458032 10.34837888 0.01010827 13.10919613 0.01555592 C15.07976191 0.01583776 17.05032779 0.01568011 19.02089351 0.01511341 C24.38844083 0.01482533 29.75596601 0.02072381 35.12350816 0.02768737 C40.72627521 0.03391911 46.32904272 0.03452456 51.9318127 0.03571278 C62.54949132 0.03882663 73.16715969 0.04704074 83.78483379 0.05706227 C95.86926898 0.06822174 107.95370464 0.07373344 120.03814369 0.0787577 C144.90420025 0.08922331 169.77024699 0.10702412 194.63629574 0.12908131 C194.63629574 5.73908131 194.63629574 11.34908131 194.63629574 17.12908131 C200.24629574 17.12908131 205.85629574 17.12908131 211.63629574 17.12908131 C211.96629574 15.80908131 212.29629574 14.48908131 212.63629574 13.12908131 C213.95629574 12.79908131 215.27629574 12.46908131 216.63629574 12.12908131 C216.63629574 13.77908131 216.63629574 15.42908131 216.63629574 17.12908131 C217.94485531 17.12384449 219.25341488 17.11860768 220.60162777 17.11321217 C225.57053325 17.09477686 230.53943589 17.08351229 235.50836605 17.07414967 C237.63760303 17.06919572 239.76683676 17.06243071 241.89606136 17.05364186 C253.17180814 17.00834703 264.42467091 17.06896698 275.69098324 17.57048756 C276.57706264 17.60947666 277.46314205 17.64846577 278.37607235 17.68863636 C283.50660868 17.94352105 288.54724196 18.42849976 293.63629574 19.12908131 C293.63629574 20.44908131 293.63629574 21.76908131 293.63629574 23.12908131 C292.63629574 24.12908131 292.63629574 24.12908131 290.29254574 24.26189381 C284.24498218 24.24692459 278.26844576 24.06815614 272.23395199 23.65642506 C260.69187883 22.9272958 249.13452669 22.77790557 237.57379574 22.56658131 C235.33876377 22.52326611 233.10373765 22.47964832 230.86871761 22.43572193 C225.45797257 22.33002761 220.04716796 22.22803916 214.63629574 22.12908131 C214.5133514 23.13164967 214.39040706 24.13421803 214.26373714 25.16716725 C213.70484707 29.06096744 212.70577385 32.74263603 211.59723324 36.51970631 C211.39555538 37.21379093 211.19387752 37.90787556 210.98608822 38.62299305 C210.55478108 40.10721705 210.12158606 41.59089355 209.68664974 43.07405812 C205.86901207 56.10388146 202.25414072 69.16440319 198.89947933 82.32170826 C197.55403497 87.59544853 196.17789805 92.84586087 194.63629574 98.06658131 C192.59963801 105.04059111 190.84191131 112.08280993 189.07379574 119.12908131 C188.78053402 120.29302418 188.4872723 121.45696705 188.18512386 122.65618092 C183.89706008 139.14044628 183.89706008 139.14044628 181.94879574 156.00408131 C181.91463558 156.70404225 181.88047542 157.40400318 181.84528011 158.12517506 C181.76533113 159.79268237 181.69912556 161.46084125 181.63629574 163.12908131 C179.98629574 163.45908131 178.33629574 163.78908131 176.63629574 164.12908131 C173.27453473 157.4055593 176.27312682 147.74499281 177.82379574 140.81658131 C178.04938167 139.7762273 178.27496761 138.7358733 178.50738949 137.66399342 C179.2032851 134.48244565 179.91668215 131.30534112 180.63629574 128.12908131 C180.84979671 127.17871998 181.06329769 126.22835865 181.28326839 125.2491985 C183.47128101 115.57389251 185.8752058 106.00841239 188.75909847 96.51677662 C190.41283693 91.03152113 191.83354404 85.50511272 193.19879574 79.94158131 C196.38256691 67.00644356 200.16215527 54.28854327 204.08697933 41.56145436 C206.06645795 35.11558871 207.88993148 28.6421176 209.63629574 22.12908131 C204.68629574 22.12908131 199.73629574 22.12908131 194.63629574 22.12908131 C194.63629574 30.04908131 194.63629574 37.96908131 194.63629574 46.12908131 C194.30629574 46.12908131 193.97629574 46.12908131 193.63629574 46.12908131 C193.63629574 38.20908131 193.63629574 30.28908131 193.63629574 22.12908131 C187.80458426 22.49227535 181.97389069 22.86168972 176.14361995 23.24602467 C174.16760706 23.37451844 172.19137027 23.49962244 170.21490902 23.62102467 C150.09432188 23.88594523 150.09432188 23.88594523 131.63629574 30.12908131 C130.64629574 30.12908131 129.65629574 30.12908131 128.63629574 30.12908131 C128.63629574 27.87908131 128.63629574 27.87908131 129.63629574 25.12908131 C136.82759126 19.71726453 146.88900708 18.88193355 155.57379574 18.00408131 C156.40556331 17.91916432 157.23733089 17.83424732 158.09430355 17.74675709 C169.58119493 16.7061109 181.11579229 16.96656637 192.63629574 17.12908131 C192.63629574 12.17908131 192.63629574 7.22908131 192.63629574 2.12908131 C127.95629574 2.12908131 63.27629574 2.12908131 -3.36370426 2.12908131 C-3.36370426 16.97908131 -3.36370426 31.82908131 -3.36370426 47.12908131 C-4.35370426 47.12908131 -5.34370426 47.12908131 -6.36370426 47.12908131 C-6.38897429 40.59629345 -6.40653718 34.0635181 -6.4186359 27.53069264 C-6.42367743 25.30640399 -6.43051049 23.08211868 -6.43914372 20.85784107 C-6.45121725 17.66829822 -6.45693422 14.47879902 -6.46136051 11.28923756 C-6.4665218 10.288205 -6.47168308 9.28717243 -6.47700077 8.25580555 C-6.4770763 7.33492649 -6.47715183 6.41404743 -6.47722965 5.46526295 C-6.47945027 4.6502985 -6.48167088 3.83533406 -6.48395878 2.99567372 C-6.22547882 -1.01645618 -3.34729507 0.00953902 0 0 Z " fill="#464443" transform="translate(155.36370426416397,149.8709186911583)"/>
<path d="M0 0 C0.77527682 0.00291284 1.55055364 0.00582568 2.34932369 0.00882679 C3.16688859 0.00797237 3.98445348 0.00711794 4.82679307 0.00623763 C7.58761584 0.00458032 10.34837888 0.01010827 13.10919613 0.01555592 C15.07976191 0.01583776 17.05032779 0.01568011 19.02089351 0.01511341 C24.38844083 0.01482533 29.75596601 0.02072381 35.12350816 0.02768737 C40.72627521 0.03391911 46.32904272 0.03452456 51.9318127 0.03571278 C62.54949132 0.03882663 73.16715969 0.04704074 83.78483379 0.05706227 C95.86926898 0.06822174 107.95370464 0.07373344 120.03814369 0.0787577 C144.90420025 0.08922331 169.77024699 0.10702412 194.63629574 0.12908131 C194.63629574 5.40908131 194.63629574 10.68908131 194.63629574 16.12908131 C193.97629574 16.45908131 193.31629574 16.78908131 192.63629574 17.12908131 C192.63629574 12.17908131 192.63629574 7.22908131 192.63629574 2.12908131 C127.95629574 2.12908131 63.27629574 2.12908131 -3.36370426 2.12908131 C-3.36370426 16.97908131 -3.36370426 31.82908131 -3.36370426 47.12908131 C-4.35370426 47.12908131 -5.34370426 47.12908131 -6.36370426 47.12908131 C-6.38897429 40.59629345 -6.40653718 34.0635181 -6.4186359 27.53069264 C-6.42367743 25.30640399 -6.43051049 23.08211868 -6.43914372 20.85784107 C-6.45121725 17.66829822 -6.45693422 14.47879902 -6.46136051 11.28923756 C-6.4665218 10.288205 -6.47168308 9.28717243 -6.47700077 8.25580555 C-6.4770763 7.33492649 -6.47715183 6.41404743 -6.47722965 5.46526295 C-6.47945027 4.6502985 -6.48167088 3.83533406 -6.48395878 2.99567372 C-6.22547882 -1.01645618 -3.34729507 0.00953902 0 0 Z " fill="#6C6B6A" transform="translate(155.36370426416397,149.8709186911583)"/>
<path d="M0 0 C0.99 0 1.98 0 3 0 C3 15.18 3 30.36 3 46 C-0.11419277 47.55709639 -3.41556387 47.13314387 -6.83328247 47.12025452 C-7.65170179 47.12110894 -8.47012111 47.12196337 -9.31334102 47.12284368 C-12.07105782 47.12449813 -14.82871454 47.11897767 -17.58642578 47.11352539 C-19.55713906 47.11324349 -21.52785245 47.11340132 -23.49856567 47.1139679 C-28.86192169 47.11425574 -34.22525551 47.1083611 -39.58860636 47.10139394 C-45.18869827 47.09515824 -50.78879065 47.09455643 -56.3888855 47.09336853 C-66.99944762 47.09025585 -77.60999949 47.08204332 -88.22055709 47.07201904 C-100.29776047 47.06085594 -112.37496432 47.05534695 -124.45217156 47.05032361 C-149.3014534 47.03986066 -174.15072613 47.02226244 -199 47 C-199 46.34 -199 45.68 -199 45 C-133.33 45 -67.66 45 0 45 C0 30.15 0 15.3 0 0 Z " fill="#484645" transform="translate(350,335)"/>
<path d="M0 0 C0.99 0 1.98 0 3 0 C3 15.18 3 30.36 3 46 C1.515 46.495 1.515 46.495 0 47 C0 31.49 0 15.98 0 0 Z " fill="#7D7C7B" transform="translate(350,335)"/>
<path d="M0 0 C1.98 0 3.96 0 6 0 C5.62875 0.5775 5.2575 1.155 4.875 1.75 C3.70833333 4 3.70833333 4 4.875 6.25 C5.24625 6.8275 5.6175 7.405 6 8 C5.34 8 4.68 8 4 8 C4 7.34 4 6.68 4 6 C3.34 6 2.68 6 2 6 C2 6.66 2 7.32 2 8 C1.34 8 0.68 8 0 8 C0 5.36 0 2.72 0 0 Z " fill="#8C8A8A" transform="translate(289,354)"/>
<path d="M0 0 C2.475 0.495 2.475 0.495 5 1 C5.33 3.31 5.66 5.62 6 8 C4 8 2 8 0 8 C0 5.36 0 2.72 0 0 Z " fill="#6C6B6A" transform="translate(253,354)"/>
<path d="M0 0 C1.65 0 3.3 0 5 0 C4.01 0.33 3.02 0.66 2 1 C2 1.66 2 2.32 2 3 C2.99 3 3.98 3 5 3 C5 3.66 5 4.32 5 5 C4.01 5 3.02 5 2 5 C2 5.66 2 6.32 2 7 C3.32 6.67 4.64 6.34 6 6 C6 6.66 6 7.32 6 8 C4.02 8 2.04 8 0 8 C0 5.36 0 2.72 0 0 Z " fill="#858383" transform="translate(223,354)"/>
<path d="M0 0 C1.65 0 3.3 0 5 0 C4.01 0.33 3.02 0.66 2 1 C2 1.66 2 2.32 2 3 C2.66 3 3.32 3 4 3 C4 3.66 4 4.32 4 5 C3.34 5 2.68 5 2 5 C2 5.66 2 6.32 2 7 C3.32 6.67 4.64 6.34 6 6 C6 6.66 6 7.32 6 8 C4.02 8 2.04 8 0 8 C0 5.36 0 2.72 0 0 Z " fill="#828180" transform="translate(301,354)"/>
<path d="M0 0 C1.65 0 3.3 0 5 0 C4.01 0.33 3.02 0.66 2 1 C2 1.66 2 2.32 2 3 C2.66 3 3.32 3 4 3 C4 3.66 4 4.32 4 5 C3.34 5 2.68 5 2 5 C2 5.66 2 6.32 2 7 C3.32 6.67 4.64 6.34 6 6 C6 6.66 6 7.32 6 8 C4.02 8 2.04 8 0 8 C0 5.36 0 2.72 0 0 Z " fill="#828180" transform="translate(188,354)"/>
<path d="M0 0 C1.65 0 3.3 0 5 0 C5 2.31 5 4.62 5 7 C3.33333333 7 1.66666667 7 0 7 C0 4.69 0 2.38 0 0 Z " fill="#807F7E" transform="translate(312,354)"/>
<path d="M0 0 C1.32 0 2.64 0 4 0 C3.43628586 3.26954202 2.50037734 4.82575883 0 7 C0 4.69 0 2.38 0 0 Z " fill="#A6A5A5" transform="translate(253,354)"/>
</svg>
